<?xml version="1.0" encoding="UTF-8"?>
<!DOCTYPE svg PUBLIC "-//W3C//DTD SVG 1.1//EN" "http://www.w3.org/Graphics/SVG/1.1/DTD/svg11.dtd">
<!-- Creator: CorelDRAW 2021 (64 Bit) -->
<svg xmlns="http://www.w3.org/2000/svg" xml:space="preserve" width="7.0725mm" height="9.0077mm" version="1.1" style="shape-rendering:geometricPrecision; text-rendering:geometricPrecision; image-rendering:optimizeQuality; fill-rule:evenodd; clip-rule:evenodd"
viewBox="0 0 38.65 49.23"
 xmlns:xlink="http://www.w3.org/1999/xlink"
 xmlns:xodm="http://www.corel.com/coreldraw/odm/2003">
 <defs>
  <style type="text/css">
   <![CDATA[
    .fil0 {fill:#76FF03}
   ]]>
  </style>
 </defs>
 <g id="Camada_x0020_1">
  <metadata id="CorelCorpID_0Corel-Layer"/>
  <path class="fil0" d="M-0 5.38l0 38.46c0,1.52 0.66,2.89 1.42,3.68 0.45,0.47 0.87,0.83 1.47,1.13 0.45,0.23 1.35,0.57 2.02,0.57l28.84 0c1.31,0 2.61,-0.82 3.44,-1.66 0.79,-0.8 1.46,-2.17 1.46,-3.73l0 -33.75 -6.54 0c-2.02,0 -3.56,-1.23 -3.56,-2.98l0 -7.11 -23.65 0c-0.64,0 -1.49,0.31 -1.96,0.54 -1.69,0.82 -2.95,2.7 -2.95,4.84zm6.97 39.44l22.72 0c1.85,0 1.61,-2.24 0.31,-2.24l-23.43 0c-1.25,0 -1.47,2.24 0.41,2.24zm0 -4.22l22.72 0c1.85,0 1.61,-2.24 0.31,-2.24l-23.43 0c-1.25,0 -1.47,2.24 0.41,2.24zm0 -4.22l22.72 0c1.85,0 1.61,-2.24 0.31,-2.24l-23.43 0c-1.25,0 -1.47,2.24 0.41,2.24zm-2.13 -8.55c-0.77,1.06 0.81,2.39 1.73,1.27l6.55 -9.45 6.38 9.72c0.54,0.74 1.38,0.55 1.77,0.03l3.57 -5.04 4.49 3.17 2.22 -14.51 -12.94 6.93 4.48 3.17 -2.66 3.76 -6.39 -9.73 -0.01 0c-0.37,-0.52 -1.18,-0.75 -1.74,-0.07l-7.45 10.76zm33.71 -18.88c-0.11,-0.43 -0.72,-0.86 -1.03,-1.18 -1.08,-1.08 -7.35,-7.46 -7.81,-7.76 0,0.67 -0.08,7.13 0.08,7.61 0.53,1.64 2.53,1.33 4.25,1.33 1.51,0 3.01,0 4.52,0z"/>
 </g>
</svg>
